<?xml version="1.0" encoding="UTF-8"?>
<svg width="600px" height="225px" viewBox="0 0 600 225" version="1.1" xmlns="http://www.w3.org/2000/svg" xmlns:xlink="http://www.w3.org/1999/xlink">
    <!-- Generator: Sketch 41.2 (35397) - http://www.bohemiancoding.com/sketch -->
    <title>Artboard</title>
    <desc>Created with Sketch.</desc>
    <defs></defs>
    <g id="Page-1" stroke="none" stroke-width="1" fill="none" fill-rule="evenodd">
        <g id="Artboard">
            <g id="Group-3" transform="translate(15.000000, 17.000000)">
                <g id="Group-2" transform="translate(207.692308, 51.666667)">
                    <path d="M26.9997012,73.5142934 L38.7343166,73.5142934 L22.8458551,33.3033843 L38.7343166,0.968838879 L27.3112397,0.968838879 L12.5650858,32.3706571 L12.3573935,32.3706571 L12.3573935,0.968838879 L0.934316618,0.968838879 L0.934316618,73.5142934 L12.3573935,73.5142934 L12.3573935,51.2324752 L15.8881628,44.599748 L26.9997012,73.5142934 Z M53.6881628,17.6542934 C53.6881628,12.4724752 55.9727782,10.5033843 59.6073935,10.5033843 C63.2420089,10.5033843 65.5266243,12.4724752 65.5266243,17.6542934 L65.5266243,56.8288389 C65.5266243,62.0106571 63.2420089,63.979748 59.6073935,63.979748 C55.9727782,63.979748 53.6881628,62.0106571 53.6881628,56.8288389 L53.6881628,17.6542934 Z M42.2650858,56.1033843 C42.2650858,67.7106571 48.3920089,74.3433843 59.6073935,74.3433843 C70.8227782,74.3433843 76.9497012,67.7106571 76.9497012,56.1033843 L76.9497012,18.379748 C76.9497012,6.77247524 70.8227782,0.13974797 59.6073935,0.13974797 C48.3920089,0.13974797 42.2650858,6.77247524 42.2650858,18.379748 L42.2650858,56.1033843 Z M84.3227782,73.5142934 L102.392009,73.5142934 C113.815086,73.5142934 119.422778,67.1924752 119.422778,55.5852025 L119.422778,18.8979298 C119.422778,7.29065706 113.815086,0.968838879 102.392009,0.968838879 L84.3227782,0.968838879 L84.3227782,73.5142934 Z M102.184317,11.3324752 C105.818932,11.3324752 107.999701,13.1979298 107.999701,18.379748 L107.999701,56.1033843 C107.999701,61.2852025 105.818932,63.1506571 102.184317,63.1506571 L95.7458551,63.1506571 L95.7458551,11.3324752 L102.184317,11.3324752 Z M138.115086,11.3324752 L157.845855,11.3324752 L157.845855,0.968838879 L126.692009,0.968838879 L126.692009,73.5142934 L157.845855,73.5142934 L157.845855,63.1506571 L138.115086,63.1506571 L138.115086,41.9052025 L153.795855,41.9052025 L153.795855,31.5415662 L138.115086,31.5415662 L138.115086,11.3324752 Z" id="Kode" fill="#343433"></path>
                    <path d="M167.132009,18.379748 C167.132009,26.6706571 170.143547,32.6815662 179.697394,41.0761116 C187.174317,47.6052025 189.458932,51.5433843 189.458932,56.8288389 C189.458932,62.0106571 187.174317,63.8761116 183.539701,63.8761116 C179.905086,63.8761116 177.62047,62.0106571 177.62047,56.8288389 L177.62047,51.6470207 L166.82047,51.6470207 L166.82047,56.1033843 C166.82047,67.7106571 172.635855,74.3433843 183.85124,74.3433843 C195.066624,74.3433843 200.882009,67.7106571 200.882009,56.1033843 C200.882009,47.8124752 197.87047,41.8015662 188.316624,33.4070207 C180.839701,26.8779298 178.555086,22.939748 178.555086,17.6542934 C178.555086,12.4724752 180.632009,10.5033843 184.266624,10.5033843 C187.90124,10.5033843 189.978163,12.4724752 189.978163,17.6542934 L189.978163,20.659748 L200.778163,20.659748 L200.778163,18.379748 C200.778163,6.77247524 195.066624,0.13974797 183.955086,0.13974797 C172.843547,0.13974797 167.132009,6.77247524 167.132009,18.379748 Z M231.828163,73.5142934 L243.562778,73.5142934 L243.562778,0.968838879 L233.385855,0.968838879 L233.385855,44.3924752 L233.178163,44.3924752 L221.65124,0.968838879 L207.32047,0.968838879 L207.32047,73.5142934 L217.60124,73.5142934 L217.60124,20.9706571 L217.808932,20.9706571 L231.828163,73.5142934 Z M251.247394,0.968838879 L251.247394,56.2070207 C251.247394,67.8142934 257.062778,74.4470207 268.278163,74.4470207 C279.493547,74.4470207 285.308932,67.8142934 285.308932,56.2070207 L285.308932,0.968838879 L274.508932,0.968838879 L274.508932,56.9324752 C274.508932,62.1142934 272.224317,63.979748 268.589701,63.979748 C264.955086,63.979748 262.67047,62.1142934 262.67047,56.9324752 L262.67047,0.968838879 L251.247394,0.968838879 Z M289.774317,11.3324752 L301.716624,11.3324752 L301.716624,73.5142934 L313.139701,73.5142934 L313.139701,11.3324752 L325.082009,11.3324752 L325.082009,0.968838879 L289.774317,0.968838879 L289.774317,11.3324752 Z M326.743547,11.3324752 L338.685855,11.3324752 L338.685855,73.5142934 L350.108932,73.5142934 L350.108932,11.3324752 L362.05124,11.3324752 L362.05124,0.968838879 L326.743547,0.968838879 L326.743547,11.3324752 Z" id="Snutt" fill="#005E7C"></path>
                    <path d="M3.24228837,88.0566807 L5.48577869,88.0566807 L5.48577869,98.014713 C5.48577869,99.599761 5.77956615,100.752991 6.36714988,101.474436 C6.95473362,102.195882 7.8895119,102.556599 9.17151278,102.556599 C10.4250247,102.556599 11.3135092,102.217205 11.8369929,101.538406 C12.3604766,100.859608 12.6222146,99.7099321 12.6222146,98.0893449 L12.6222146,88.0566807 L14.5879394,88.0566807 L14.5879394,98.0573598 C14.5879394,100.211035 14.1445874,101.77829 13.2578701,102.759172 C12.3711529,103.740053 10.9591925,104.230487 9.02194676,104.230487 C7.04908985,104.230487 5.59261626,103.722284 4.65248229,102.705863 C3.71234831,101.689442 3.24228837,100.118633 3.24228837,97.9933895 L3.24228837,88.0566807 Z M18.6549481,103.836004 L18.6549481,87.0011719 L20.7595557,87.0011719 L20.7595557,97.8761108 L25.6738678,92.2573924 L27.9387247,92.2573924 L23.2487616,97.6628767 L28.9109039,103.836004 L26.2187155,103.836004 L20.7595557,97.8974342 L20.7595557,103.836004 L18.6549481,103.836004 Z M40.0075156,103.462844 C38.5973146,103.889314 37.3901153,104.102546 36.3858812,104.102546 C34.6765467,104.102546 33.2823917,103.535705 32.2033743,102.402004 C31.1243569,101.268304 30.5848563,99.7987806 30.5848563,97.9933895 C30.5848563,96.2377534 31.0602578,94.7984376 32.0110751,93.6753991 C32.9618924,92.5523606 34.1779945,91.9908497 35.6594177,91.9908497 C37.0624964,91.9908497 38.1468392,92.488391 38.9124787,93.4834884 C39.6781181,94.4785858 40.060932,95.8930245 40.060932,97.7268469 L40.0502487,98.3772109 L32.732197,98.3772109 C33.0384528,101.127945 34.3880946,102.503291 36.7811629,102.503291 C37.6571968,102.503291 38.7326369,102.268736 40.0075156,101.799618 L40.0075156,103.462844 Z M32.8283466,96.7992786 L37.9456412,96.7992786 C37.9456412,94.6456035 37.1408416,93.568782 35.5312183,93.568782 C33.9144727,93.568782 33.0135245,94.6456035 32.8283466,96.7992786 Z M43.7540257,103.836004 L43.7540257,92.2573924 L45.8586333,92.2573924 L45.8586333,94.4323801 C46.9697007,92.8117929 48.3300257,92.0015114 49.939649,92.0015114 C50.943883,92.0015114 51.7451216,92.3195824 52.3433886,92.955734 C52.9416557,93.5918856 53.2407848,94.4465904 53.2407848,95.519874 L53.2407848,103.836004 L51.1361772,103.836004 L51.1361772,96.2022231 C51.1361772,95.3421746 51.0097596,94.7291327 50.7569205,94.3630791 C50.5040814,93.9970254 50.0856569,93.8140013 49.5016342,93.8140013 C48.2125111,93.8140013 46.9981896,94.6562675 45.8586333,96.3408253 L45.8586333,103.836004 L43.7540257,103.836004 Z M60.8760114,104.102546 C59.8076774,104.102546 58.9743893,103.796914 58.3761222,103.18564 C57.7778552,102.574366 57.4787261,101.724992 57.4787261,100.637492 L57.4787261,93.8353247 L56.025799,93.8353247 L56.025799,92.2573924 L57.4787261,92.2573924 L57.4787261,90.1570365 L59.5833337,89.9544641 L59.5833337,92.2573924 L62.6173873,92.2573924 L62.6173873,93.8353247 L59.5833337,93.8353247 L59.5833337,100.253671 C59.5833337,101.767641 60.2385688,102.524614 61.5490585,102.524614 C61.8268254,102.524614 62.1651261,102.478414 62.5639708,102.386012 L62.5639708,103.836004 C61.9158482,104.0137 61.3532007,104.102546 60.8760114,104.102546 Z M65.6374339,103.836004 L65.6374339,87.0011719 L67.7420414,87.0011719 L67.7420414,103.836004 L65.6374339,103.836004 Z M72.0227159,103.836004 L72.0227159,92.2573924 L74.1273235,92.2573924 L74.1273235,103.836004 L72.0227159,103.836004 Z M72.0227159,90.1570365 L72.0227159,88.0566807 L74.1273235,88.0566807 L74.1273235,90.1570365 L72.0227159,90.1570365 Z M78.4507311,107.684879 L78.6964467,105.861728 C79.9143476,106.437463 81.1144248,106.725326 82.2967145,106.725326 C84.6684162,106.725326 85.8542492,105.470811 85.8542492,102.961744 L85.8542492,101.138592 C85.0779264,102.75918 83.8030669,103.569461 82.0296324,103.569461 C80.6407981,103.569461 79.5368694,103.064812 78.7178133,102.055499 C77.8987572,101.046186 77.4892353,99.6850553 77.4892353,97.9720661 C77.4892353,96.2093221 77.9557342,94.7735602 78.8887459,93.6647374 C79.8217577,92.5559145 81.028957,92.0015114 82.5103803,92.0015114 C83.8066256,92.0015114 84.9212374,92.5274836 85.8542492,93.5794437 L85.8542492,92.2573924 L87.96954,92.2573924 L87.96954,100.680139 C87.96954,102.492638 87.875172,103.834222 87.6864329,104.704933 C87.4976939,105.575643 87.1433684,106.288193 86.6234459,106.842605 C85.7046786,107.816378 84.2766935,108.303258 82.3394477,108.303258 C80.9862245,108.303258 79.6899987,108.097134 78.4507311,107.684879 Z M85.8542492,99.8272028 L85.8542492,95.0187739 C84.9283597,94.0592157 83.9205796,93.5794437 82.8308789,93.5794437 C81.862256,93.5794437 81.1037502,93.9668152 80.5553387,94.7415696 C80.0069272,95.516324 79.7327256,96.57893 79.7327256,97.9294193 C79.7327256,100.466918 80.6265517,101.735648 82.4142307,101.735648 C83.6321315,101.735648 84.7787929,101.099506 85.8542492,99.8272028 Z M99.094878,108.047377 L99.094878,92.2573924 L101.199486,92.2573924 L101.199486,94.4323801 C102.061275,92.8117929 103.35394,92.0015114 105.077519,92.0015114 C106.473475,92.0015114 107.572062,92.5097143 108.373313,93.5261352 C109.174563,94.5425562 109.575183,95.9321178 109.575183,97.6948618 C109.575183,99.6139783 109.121148,101.161687 108.213064,102.338034 C107.30498,103.514382 106.110244,104.102546 104.628821,104.102546 C103.254231,104.102546 102.111131,103.576574 101.199486,102.524614 L101.199486,108.047377 L99.094878,108.047377 Z M101.199486,101.074622 C102.282064,102.041288 103.314771,102.524614 104.297639,102.524614 C106.320351,102.524614 107.331692,100.98579 107.331692,97.9080959 C107.331692,95.1929015 106.434305,93.8353247 104.639504,93.8353247 C103.464337,93.8353247 102.317675,94.4714667 101.199486,95.7437698 L101.199486,101.074622 Z M112.926411,103.836004 L112.926411,92.2573924 L115.031019,92.2573924 L115.031019,94.4323801 C115.864319,92.8117929 117.07508,92.0015114 118.663336,92.0015114 C118.877003,92.0015114 119.10135,92.0192808 119.336384,92.05482 L119.336384,94.0165736 C118.97315,93.8957404 118.652655,93.8353247 118.374888,93.8353247 C117.043031,93.8353247 115.928419,94.6242829 115.031019,96.2022231 L115.031019,103.836004 L112.926411,103.836004 Z M126.480179,104.102546 C124.8207,104.102546 123.495986,103.553474 122.505996,102.455313 C121.516007,101.357152 121.021019,99.8876283 121.021019,98.0466981 C121.021019,96.1844443 121.517787,94.7113668 122.511338,93.6274214 C123.504888,92.543476 124.85275,92.0015114 126.554962,92.0015114 C128.257174,92.0015114 129.605036,92.543476 130.598586,93.6274214 C131.592137,94.7113668 132.088905,96.1773366 132.088905,98.0253747 C132.088905,99.9160598 131.590356,101.401576 130.593245,102.481967 C129.596133,103.562359 128.225125,104.102546 126.480179,104.102546 Z M126.512229,102.524614 C128.741486,102.524614 129.856098,101.024883 129.856098,98.0253747 C129.856098,95.0614059 128.75573,93.5794437 126.554962,93.5794437 C124.361316,93.5794437 123.26451,95.0685136 123.26451,98.0466981 C123.26451,101.03199 124.347072,102.524614 126.512229,102.524614 Z M135.482866,107.684879 L135.728582,105.861728 C136.946483,106.437463 138.14656,106.725326 139.32885,106.725326 C141.700551,106.725326 142.886384,105.470811 142.886384,102.961744 L142.886384,101.138592 C142.110062,102.75918 140.835202,103.569461 139.061768,103.569461 C137.672933,103.569461 136.569005,103.064812 135.749949,102.055499 C134.930893,101.046186 134.521371,99.6850553 134.521371,97.9720661 C134.521371,96.2093221 134.987869,94.7735602 135.920881,93.6647374 C136.853893,92.5559145 138.061092,92.0015114 139.542516,92.0015114 C140.838761,92.0015114 141.953373,92.5274836 142.886384,93.5794437 L142.886384,92.2573924 L145.001675,92.2573924 L145.001675,100.680139 C145.001675,102.492638 144.907307,103.834222 144.718568,104.704933 C144.529829,105.575643 144.175504,106.288193 143.655581,106.842605 C142.736814,107.816378 141.308829,108.303258 139.371583,108.303258 C138.01836,108.303258 136.722134,108.097134 135.482866,107.684879 Z M142.886384,99.8272028 L142.886384,95.0187739 C141.960495,94.0592157 140.952715,93.5794437 139.863014,93.5794437 C138.894391,93.5794437 138.135886,93.9668152 137.587474,94.7415696 C137.039063,95.516324 136.764861,96.57893 136.764861,97.9294193 C136.764861,100.466918 137.658687,101.735648 139.446366,101.735648 C140.664267,101.735648 141.810928,101.099506 142.886384,99.8272028 Z M149.143467,103.836004 L149.143467,92.2573924 L151.248075,92.2573924 L151.248075,94.4323801 C152.081375,92.8117929 153.292136,92.0015114 154.880392,92.0015114 C155.094059,92.0015114 155.318406,92.0192808 155.553439,92.05482 L155.553439,94.0165736 C155.190206,93.8957404 154.86971,93.8353247 154.591944,93.8353247 C153.260087,93.8353247 152.145475,94.6242829 151.248075,96.2022231 L151.248075,103.836004 L149.143467,103.836004 Z M164.139479,102.364689 C162.878844,103.523266 161.664523,104.102546 160.496478,104.102546 C159.534977,104.102546 158.7373,103.802245 158.103421,103.201632 C157.469543,102.60102 157.152609,101.84227 157.152609,100.925358 C157.152609,99.6601631 157.684987,98.6881807 158.74976,98.0093821 C159.814533,97.3305835 161.340447,96.9911893 163.327549,96.9911893 L163.829663,96.9911893 L163.829663,95.594506 C163.829663,94.2511244 163.138818,93.5794437 161.757106,93.5794437 C160.646038,93.5794437 159.445961,93.9206149 158.156838,94.6029674 L158.156838,92.8651095 C159.574161,92.2893746 160.902436,92.0015114 162.141704,92.0015114 C163.437949,92.0015114 164.394094,92.2929285 165.010167,92.8757712 C165.626239,93.458614 165.934271,94.3648499 165.934271,95.594506 L165.934271,100.840065 C165.934271,102.041289 166.304621,102.641893 167.045333,102.641893 C167.137922,102.641893 167.273242,102.627677 167.451298,102.599246 L167.600864,103.761372 C167.123675,103.988823 166.596638,104.102546 166.019737,104.102546 C165.03687,104.102546 164.410123,103.523266 164.139479,102.364689 Z M163.829663,101.223886 L163.829663,98.2279471 L163.124566,98.2066236 C161.970766,98.2066236 161.037768,98.4251864 160.325545,98.8623185 C159.613322,99.2994506 159.257216,99.8733999 159.257216,100.584184 C159.257216,101.08884 159.435269,101.515304 159.791381,101.863588 C160.147492,102.211872 160.581941,102.386012 161.094742,102.386012 C161.970776,102.386012 162.882407,101.998641 163.829663,101.223886 Z M170.300412,103.836004 L170.300412,92.2573924 L172.405019,92.2573924 L172.405019,94.4323801 C173.43062,92.8117929 174.748212,92.0015114 176.357836,92.0015114 C177.910481,92.0015114 178.968116,92.8117929 179.530772,94.4323801 C180.527884,92.8046851 181.82411,91.9908497 183.419488,91.9908497 C184.445089,91.9908497 185.239206,92.2911514 185.801861,92.8917638 C186.364517,93.4923762 186.645841,94.3328655 186.645841,95.413257 L186.645841,103.836004 L184.53055,103.836004 L184.53055,95.7437698 C184.53055,94.4217118 184.007074,93.7606927 182.960107,93.7606927 C181.870406,93.7606927 180.727306,94.5318817 179.530772,96.0742827 L179.530772,103.836004 L177.415481,103.836004 L177.415481,95.7437698 C177.415481,94.414604 176.881322,93.750031 175.812988,93.750031 C174.751776,93.750031 173.615798,94.5247738 172.405019,96.0742827 L172.405019,103.836004 L170.300412,103.836004 Z M190.787633,103.836004 L190.787633,92.2573924 L192.89224,92.2573924 L192.89224,94.4323801 C193.917841,92.8117929 195.235433,92.0015114 196.845057,92.0015114 C198.397702,92.0015114 199.455337,92.8117929 200.017993,94.4323801 C201.015105,92.8046851 202.311331,91.9908497 203.90671,91.9908497 C204.93231,91.9908497 205.726427,92.2911514 206.289083,92.8917638 C206.851739,93.4923762 207.133062,94.3328655 207.133062,95.413257 L207.133062,103.836004 L205.017771,103.836004 L205.017771,95.7437698 C205.017771,94.4217118 204.494296,93.7606927 203.447328,93.7606927 C202.357628,93.7606927 201.214527,94.5318817 200.017993,96.0742827 L200.017993,103.836004 L197.902702,103.836004 L197.902702,95.7437698 C197.902702,94.414604 197.368543,93.750031 196.300209,93.750031 C195.238997,93.750031 194.103019,94.5247738 192.89224,96.0742827 L192.89224,103.836004 L190.787633,103.836004 Z M219.778751,103.462844 C218.36855,103.889314 217.16135,104.102546 216.157116,104.102546 C214.447782,104.102546 213.053627,103.535705 211.974609,102.402004 C210.895592,101.268304 210.356091,99.7987806 210.356091,97.9933895 C210.356091,96.2377534 210.831493,94.7984376 211.78231,93.6753991 C212.733128,92.5523606 213.94923,91.9908497 215.430653,91.9908497 C216.833732,91.9908497 217.918074,92.488391 218.683714,93.4834884 C219.449353,94.4785858 219.832167,95.8930245 219.832167,97.7268469 L219.821484,98.3772109 L212.503432,98.3772109 C212.809688,101.127945 214.15933,102.503291 216.552398,102.503291 C217.428432,102.503291 218.503872,102.268736 219.778751,101.799618 L219.778751,103.462844 Z M212.599582,96.7992786 L217.716876,96.7992786 C217.716876,94.6456035 216.912077,93.568782 215.302453,93.568782 C213.685708,93.568782 212.78476,94.6456035 212.599582,96.7992786 Z M223.525261,103.836004 L223.525261,92.2573924 L225.629868,92.2573924 L225.629868,94.4323801 C226.463169,92.8117929 227.673929,92.0015114 229.262186,92.0015114 C229.475853,92.0015114 229.7002,92.0192808 229.935233,92.05482 L229.935233,94.0165736 C229.572,93.8957404 229.251504,93.8353247 228.973737,93.8353247 C227.641881,93.8353247 226.527269,94.6242829 225.629868,96.2022231 L225.629868,103.836004 L223.525261,103.836004 Z M232.538632,103.836004 L232.538632,92.2573924 L234.643239,92.2573924 L234.643239,103.836004 L232.538632,103.836004 Z M232.538632,90.1570365 L232.538632,88.0566807 L234.643239,88.0566807 L234.643239,90.1570365 L232.538632,90.1570365 Z M238.923914,103.836004 L238.923914,92.2573924 L241.028521,92.2573924 L241.028521,94.4323801 C242.139589,92.8117929 243.499914,92.0015114 245.109537,92.0015114 C246.113771,92.0015114 246.915009,92.3195824 247.513277,92.955734 C248.111544,93.5918856 248.410673,94.4465904 248.410673,95.519874 L248.410673,103.836004 L246.306065,103.836004 L246.306065,96.2022231 C246.306065,95.3421746 246.179647,94.7291327 245.926808,94.3630791 C245.673969,93.9970254 245.255545,93.8140013 244.671522,93.8140013 C243.382399,93.8140013 242.168078,94.6562675 241.028521,96.3408253 L241.028521,103.836004 L238.923914,103.836004 Z M252.605881,107.684879 L252.851596,105.861728 C254.069497,106.437463 255.269575,106.725326 256.451864,106.725326 C258.823566,106.725326 260.009399,105.470811 260.009399,102.961744 L260.009399,101.138592 C259.233076,102.75918 257.958217,103.569461 256.184782,103.569461 C254.795948,103.569461 253.692019,103.064812 252.872963,102.055499 C252.053907,101.046186 251.644385,99.6850553 251.644385,97.9720661 C251.644385,96.2093221 252.110884,94.7735602 253.043896,93.6647374 C253.976907,92.5559145 255.184107,92.0015114 256.66553,92.0015114 C257.961775,92.0015114 259.076387,92.5274836 260.009399,93.5794437 L260.009399,92.2573924 L262.12469,92.2573924 L262.12469,100.680139 C262.12469,102.492638 262.030322,103.834222 261.841583,104.704933 C261.652844,105.575643 261.298518,106.288193 260.778596,106.842605 C259.859828,107.816378 258.431843,108.303258 256.494597,108.303258 C255.141374,108.303258 253.845148,108.097134 252.605881,107.684879 Z M260.009399,99.8272028 L260.009399,95.0187739 C259.083509,94.0592157 258.075729,93.5794437 256.986029,93.5794437 C256.017406,93.5794437 255.2589,93.9668152 254.710488,94.7415696 C254.162077,95.516324 253.887875,96.57893 253.887875,97.9294193 C253.887875,100.466918 254.781701,101.735648 256.56938,101.735648 C257.787281,101.735648 258.933943,101.099506 260.009399,99.8272028 Z M269.343268,104.102546 C268.381768,104.102546 267.21374,103.878653 265.83915,103.430859 L265.83915,101.50109 C267.21374,102.183443 268.410256,102.524614 269.428735,102.524614 C270.034124,102.524614 270.536233,102.361136 270.935078,102.034176 C271.333923,101.707215 271.533342,101.29852 271.533342,100.80808 C271.533342,100.090188 270.974256,99.4966923 269.856066,99.0275749 L268.627488,98.5051514 C266.81132,97.7517205 265.90325,96.6677913 265.90325,95.2533314 C265.90325,94.2440183 266.261136,93.4497292 266.97692,92.8704404 C267.692704,92.2911515 268.673776,92.0015114 269.920166,92.0015114 C270.568288,92.0015114 271.369527,92.0903581 272.323905,92.2680541 L272.76192,92.3533477 L272.76192,94.1018673 C271.586753,93.7535832 270.653755,93.5794437 269.962899,93.5794437 C268.609676,93.5794437 267.933074,94.0698773 267.933074,95.050759 C267.933074,95.6833567 268.445867,96.2164366 269.471468,96.6500147 L270.48638,97.0764829 C271.633059,97.559816 272.44498,98.0697957 272.922169,98.6064376 C273.399359,99.1430794 273.63795,99.8129832 273.63795,100.616169 C273.63795,101.63259 273.23555,102.467748 272.430738,103.12167 C271.625927,103.775591 270.59678,104.102546 269.343268,104.102546 Z M277.480609,103.836004 L277.480609,92.2573924 L279.585217,92.2573924 L279.585217,103.836004 L277.480609,103.836004 Z M277.480609,90.1570365 L277.480609,88.0566807 L279.585217,88.0566807 L279.585217,90.1570365 L277.480609,90.1570365 Z M283.865891,103.836004 L283.865891,92.2573924 L285.970499,92.2573924 L285.970499,94.4323801 C287.081566,92.8117929 288.441891,92.0015114 290.051515,92.0015114 C291.055749,92.0015114 291.856987,92.3195824 292.455254,92.955734 C293.053521,93.5918856 293.352651,94.4465904 293.352651,95.519874 L293.352651,103.836004 L291.248043,103.836004 L291.248043,96.2022231 C291.248043,95.3421746 291.121625,94.7291327 290.868786,94.3630791 C290.615947,93.9970254 290.197523,93.8140013 289.6135,93.8140013 C288.324377,93.8140013 287.110055,94.6562675 285.970499,96.3408253 L285.970499,103.836004 L283.865891,103.836004 Z M297.505126,103.836004 L297.505126,92.2573924 L299.609733,92.2573924 L299.609733,94.4323801 C300.720801,92.8117929 302.081126,92.0015114 303.690749,92.0015114 C304.694983,92.0015114 305.496221,92.3195824 306.094488,92.955734 C306.692756,93.5918856 306.991885,94.4465904 306.991885,95.519874 L306.991885,103.836004 L304.887277,103.836004 L304.887277,96.2022231 C304.887277,95.3421746 304.760859,94.7291327 304.50802,94.3630791 C304.255181,93.9970254 303.836757,93.8140013 303.252734,93.8140013 C301.963611,93.8140013 300.749289,94.6562675 299.609733,96.3408253 L299.609733,103.836004 L297.505126,103.836004 Z M311.14436,103.836004 L311.14436,87.0011719 L313.248967,87.0011719 L313.248967,94.4323801 C314.360035,92.8117929 315.72036,92.0015114 317.329983,92.0015114 C318.334217,92.0015114 319.135456,92.3195824 319.733723,92.955734 C320.33199,93.5918856 320.631119,94.4465904 320.631119,95.519874 L320.631119,103.836004 L318.526511,103.836004 L318.526511,96.2022231 C318.526511,95.3421746 318.400093,94.7291327 318.147254,94.3630791 C317.894415,93.9970254 317.475991,93.8140013 316.891968,93.8140013 C315.602845,93.8140013 314.388524,94.6562675 313.248967,96.3408253 L313.248967,103.836004 L311.14436,103.836004 Z M329.323991,104.102546 C327.664512,104.102546 326.339798,103.553474 325.349808,102.455313 C324.359818,101.357152 323.864831,99.8876283 323.864831,98.0466981 C323.864831,96.1844443 324.361599,94.7113668 325.35515,93.6274214 C326.3487,92.543476 327.696562,92.0015114 329.398774,92.0015114 C331.100986,92.0015114 332.448847,92.543476 333.442398,93.6274214 C334.435949,94.7113668 334.932717,96.1773366 334.932717,98.0253747 C334.932717,99.9160598 334.434168,101.401576 333.437056,102.481967 C332.439945,103.562359 331.068936,104.102546 329.323991,104.102546 Z M329.356041,102.524614 C331.585298,102.524614 332.69991,101.024883 332.69991,98.0253747 C332.69991,95.0614059 331.599542,93.5794437 329.398774,93.5794437 C327.205128,93.5794437 326.108321,95.0685136 326.108321,98.0466981 C326.108321,101.03199 327.190884,102.524614 329.356041,102.524614 Z M338.283945,103.836004 L338.283945,87.0011719 L340.388553,87.0011719 L340.388553,103.836004 L338.283945,103.836004 Z M352.115478,103.836004 L352.115478,101.661016 C351.260811,103.288711 349.971707,104.102546 348.248128,104.102546 C346.852172,104.102546 345.753585,103.594344 344.952334,102.577923 C344.151084,101.561502 343.750464,100.17194 343.750464,98.409196 C343.750464,96.4829717 344.2045,94.9334861 345.112584,93.7606927 C346.020668,92.5878993 347.215403,92.0015114 348.696826,92.0015114 C350.071416,92.0015114 351.210956,92.5274836 352.115478,93.5794437 L352.115478,87.0011719 L354.230769,87.0011719 L354.230769,103.836004 L352.115478,103.836004 Z M352.115478,95.0187739 C351.025778,94.0592157 349.99307,93.5794437 349.017325,93.5794437 C347.001735,93.5794437 345.993955,95.1182678 345.993955,98.1959619 C345.993955,100.904049 346.891342,102.258071 348.686143,102.258071 C349.854188,102.258071 350.997289,101.621929 352.115478,100.349626 L352.115478,95.0187739 Z" id="Ukentlig-programmeri" fill="#6D6E6C"></path>
                </g>
                <g id="Group">
                    <path d="M150.962009,162.23697 C150.962009,165.749091 149.668547,175.191515 143.823163,180.407879 C138.574317,185.094545 128.946624,185.762424 125.233547,185.762424 C121.552778,185.762424 111.438163,184.610909 106.008163,179.417576 C99.8627782,173.533333 98.5866243,163.342424 98.5866243,159.807273 C98.5866243,156.755758 98.4204705,149.420606 103.463932,145.701212 C109.409701,141.313939 120.988547,140.761212 125.233547,140.761212 C129.117394,140.761212 140.740086,140.876364 146.15624,145.344242 C151.682009,149.915758 150.962009,158.874545 150.962009,162.23697 L150.962009,162.23697 Z M68.7573935,159.807273 C68.7573935,163.342424 67.4823935,173.533333 61.3358551,179.417576 C55.9058551,184.610909 45.7912397,185.762424 42.1104705,185.762424 C38.3985474,185.762424 28.7697012,185.094545 23.5208551,180.407879 C17.6766243,175.191515 16.3820089,165.749091 16.3820089,162.23697 C16.3820089,158.874545 15.6620089,149.915758 21.1877782,145.344242 C26.603932,140.876364 38.2266243,140.761212 42.1104705,140.761212 C46.3554705,140.761212 57.9343166,141.313939 63.8812397,145.701212 C68.9247012,149.420606 68.7573935,156.755758 68.7573935,159.807273 L68.7573935,159.807273 Z M159.232778,158.045455 C161.505855,156.237576 165.764701,155.569697 165.764701,155.569697 C166.387778,155.316364 166.795086,154.717576 166.795086,154.038182 L166.795086,146.68 C166.795086,145.94303 166.302394,145.286667 165.588163,145.090909 C163.639317,144.561212 159.490086,143.363636 154.319701,141.613333 C146.429701,138.930303 142.44547,135.118788 125.233547,135.118788 C104.452778,135.118788 96.9423935,143.870303 95.4943166,143.870303 C93.5408551,143.870303 93.8027782,142.833939 91.1997012,142.315758 C89.9535474,142.062424 88.2308551,141.889697 83.6720089,141.889697 C79.1131628,141.889697 77.4170089,142.12 76.1443166,142.315758 C73.5216243,142.718788 73.8031628,143.870303 71.8508551,143.870303 C70.4016243,143.870303 62.8912397,135.118788 42.1104705,135.118788 C24.8985474,135.118788 20.9143166,138.930303 13.0243166,141.613333 C7.853932,143.363636 3.70470123,144.561212 1.75585508,145.090909 C1.04162431,145.286667 0.548932003,145.94303 0.548932003,146.68 L0.548932003,154.038182 C0.548932003,154.717576 0.956239695,155.316364 1.57931662,155.569697 C1.57931662,155.569697 5.83816277,156.237576 8.11239354,158.045455 C11.0985474,160.429091 12.4231628,175.341212 20.0777782,182.365455 C27.6712397,189.332121 34.2643166,189.366667 42.1104705,189.366667 C49.9566243,189.366667 57.9608551,188.468485 65.0120089,181.064242 C69.6966243,176.135758 73.5020089,165.818182 75.3227782,158.713333 C75.9366243,156.318182 74.2358551,155.132121 74.2358551,152.76 C74.2358551,150.007879 76.4812397,148.98303 79.4050858,148.464848 C80.5970089,148.257576 82.1350858,148.050303 83.6720089,148.050303 C85.208932,148.050303 86.8266243,148.257576 87.9400858,148.464848 C90.8558551,149.029091 93.1081628,150.007879 93.1081628,152.76 C93.1081628,155.132121 91.4073935,156.318182 92.0212397,158.713333 C93.8420089,165.818182 97.6473935,176.135758 102.332009,181.064242 C109.383163,188.468485 117.388547,189.366667 125.233547,189.366667 C133.079701,189.366667 139.672778,189.332121 147.267394,182.365455 C154.920855,175.341212 156.246624,160.429091 159.232778,158.045455 L159.232778,158.045455 Z" id="Fill-28" fill="#005E7C"></path>
                    <path d="M9.30431662,138.032121 C9.58008585,137.893939 9.86623969,137.767273 10.1743166,137.686667 C11.5266243,137.306667 13.9831628,136.604242 17.1008551,135.602424 C17.303932,125.664848 21.4543166,118.617576 21.0481628,110.522424 C20.3558551,96.6927273 23.5508551,81.5618182 50.8670089,82.6787879 C78.1831628,83.7957576 79.0785474,86.9278788 95.198932,86.9278788 C111.32047,86.9278788 126.769317,81.1127273 134.60624,81.1127273 C146.668547,81.1127273 144.569701,91.1654545 144.569701,98.7424242 C144.569701,108.714545 149.192009,121.266061 151.851624,135.383636 C155.29124,136.500606 158.013163,137.283636 159.462394,137.686667 C159.727778,137.755758 159.98047,137.859394 160.222778,137.974545 C164.539317,128.186667 167.344317,117.627273 167.344317,106.572727 C167.344317,94.9424242 159.492394,85.649697 156.408163,84.3254545 C159.934317,85.0854545 164.496624,87.9872727 166.652009,92.2018182 C165.812009,82.4024242 159.347009,78.0957576 156.883547,77.6466667 C161.809317,74.0769697 161.977778,70.7836364 161.977778,67.8818182 C160.018547,71.1751515 158.395086,71.9006061 156.435855,72.0618182 C159.682778,65.1412121 159.09547,54.1672727 152.629317,50.1715152 C152.042009,65.7284848 149.943163,31.2866667 129.456624,25.9206061 C132.982778,28.6036364 136.928932,34.050303 136.397009,38.6563636 C132.394317,31.6206061 119.380086,17.2151515 90.2731628,12.2981818 C94.4997012,13.3230303 94.9750858,16.9042424 92.0650858,17.2151515 C88.4535474,17.5951515 78.0712397,10.110303 80.7573935,0 C76.0000858,4.42181818 56.0731628,2.52181818 46.1650858,20.1169697 C46.0877782,18.1593939 47.1170089,14.8084848 48.4600858,13.0236364 C36.3412397,26.5884848 5.27508585,35.3054545 15.0423935,73.0751515 C10.1454705,65.889697 9.55700893,56.009697 11.1250858,50.5054545 C7.45816277,54.0751515 -1.07799107,67.490303 7.43047046,82.0109091 C5.86239354,80.3872727 5.19085508,79.5466667 1.16162431,78.2109091 C6.28239354,80.56 7.12239354,85.0854545 7.20662431,88.9315152 C2.54623969,90.0254545 -0.573760305,96.8654545 0.0885473873,102.565455 C0.829316618,96.6236364 4.73739354,94.0672727 7.07508585,94.4587879 C2.24739354,95.8290909 -5.34260646,110.925455 9.30431662,138.032121" id="Fill-29" fill="#343433"></path>
                    <path d="M9.30431662,138.032121 C9.58008585,137.893939 9.86623969,137.767273 10.1743166,137.686667 C11.5266243,137.306667 13.9831628,136.604242 17.1008551,135.602424 C17.303932,125.664848 21.4543166,118.617576 21.0481628,110.522424 C20.3558551,96.6927273 23.5508551,81.5618182 50.8670089,82.6787879 C78.1831628,83.7957576 79.0785474,86.9278788 95.198932,86.9278788 C111.32047,86.9278788 126.769317,81.1127273 134.60624,81.1127273 C146.668547,81.1127273 144.569701,91.1654545 144.569701,98.7424242 C144.569701,108.714545 149.192009,121.266061 151.851624,135.383636 C155.29124,136.500606 158.013163,137.283636 159.462394,137.686667 C159.727778,137.755758 159.98047,137.859394 160.222778,137.974545 C164.539317,128.186667 167.344317,117.627273 167.344317,106.572727 C167.344317,94.9424242 159.492394,85.649697 156.408163,84.3254545 C159.934317,85.0854545 164.496624,87.9872727 166.652009,92.2018182 C165.812009,82.4024242 159.347009,78.0957576 156.883547,77.6466667 C161.809317,74.0769697 161.977778,70.7836364 161.977778,67.8818182 C160.018547,71.1751515 158.395086,71.9006061 156.435855,72.0618182 C159.682778,65.1412121 159.09547,54.1672727 152.629317,50.1715152 C152.042009,65.7284848 149.943163,31.2866667 129.456624,25.9206061 C132.982778,28.6036364 136.928932,34.050303 136.397009,38.6563636 C132.394317,31.6206061 119.380086,17.2151515 90.2731628,12.2981818 C94.4997012,13.3230303 94.9750858,16.9042424 92.0650858,17.2151515 C88.4535474,17.5951515 78.0712397,10.110303 80.7573935,0 C76.0000858,4.42181818 56.0731628,2.52181818 46.1650858,20.1169697 C46.0877782,18.1593939 47.1170089,14.8084848 48.4600858,13.0236364 C36.3412397,26.5884848 5.27508585,35.3054545 15.0423935,73.0751515 C10.1454705,65.889697 9.55700893,56.009697 11.1250858,50.5054545 C7.45816277,54.0751515 -1.07799107,67.490303 7.43047046,82.0109091 C5.86239354,80.3872727 5.19085508,79.5466667 1.16162431,78.2109091 C6.28239354,80.56 7.12239354,85.0854545 7.20662431,88.9315152 C2.54623969,90.0254545 -0.573760305,96.8654545 0.0885473873,102.565455 C0.829316618,96.6236364 4.73739354,94.0672727 7.07508585,94.4587879 C2.24739354,95.8290909 -5.34260646,110.925455 9.30431662,138.032121" id="Fill-30" fill="#343433"></path>
                    <path d="M77.9916243,4.31818182 C76.7662397,16.0521212 87.2304705,22.3854545 93.3608551,22.3854545 C98.408932,22.3854545 99.4323935,18.7351515 98.4227782,17.2957576 C110.698547,18.1133333 130.491624,29.4442424 136.077394,38.1151515 C131.734317,30.9066667 118.657778,17.0884848 90.2731628,12.2981818 C94.4997012,13.3230303 94.9750858,16.9042424 92.0650858,17.2151515 C88.4535474,17.5951515 78.0712397,10.110303 80.7573935,0 C76.1973935,4.23757576 57.7081628,2.67151515 47.4562397,18.0327273 C56.6454705,5.33151515 72.3666243,7.12787879 77.9916243,4.31818182" id="Fill-31" fill="#005E7C"></path>
                    <path d="M112.671624,157.032121 C109.867778,157.976364 108.064317,160.670909 107.886624,163.135152 L104.577394,161.465455 C104.325855,164.240606 105.44047,167.084848 107.802394,168.927273 C111.503932,171.817576 116.853163,171.161212 119.748163,167.476364 C122.644317,163.78 121.990086,158.43697 118.288547,155.546667 C115.926624,153.704242 112.89547,153.312727 110.257778,154.222424 L112.671624,157.032121" id="Fill-32" fill="#343433"></path>
                    <path d="M59.5208551,161.868485 C58.5700858,159.070303 55.8654705,157.262424 53.4043166,157.089697 L55.0704705,153.784848 C52.2908551,153.531515 49.4443166,154.648485 47.5958551,157.009091 C44.6997012,160.705455 45.353932,166.03697 49.0554705,168.927273 C52.7570089,171.817576 58.1050858,171.161212 61.0012397,167.476364 C62.8485474,165.115758 63.2454705,162.087273 62.3316243,159.461818 L59.5208551,161.868485" id="Fill-33" fill="#343433"></path>
                </g>
            </g>
        </g>
    </g>
</svg>